<svg xmlns="http://www.w3.org/2000/svg" width="520" height="250" viewBox="0 0 520 250"><rect width="100%" height="100%" fill="#fffaf3"/><rect x="1" y="1" width="518" height="248" rx="14" fill="#fffaf3" stroke="#c8b49b" stroke-width="2"/><style>text{font-family:"PingFang SC","Noto Sans CJK SC","Hiragino Sans GB","Songti SC",sans-serif;fill:#221b14}.meta{font-size:22px;font-weight:700}.line{font-size:24px}.byte{font-size:20px;fill:#7a6456}</style><rect x="20" y="28" width="160" height="160" rx="12" fill="#fbf7ef" stroke="#d8cab8" stroke-width="2"/><rect x="108" y="52" width="8" height="8" fill="#1b1b1b"/><rect x="132" y="52" width="8" height="8" fill="#1b1b1b"/><rect x="100" y="60" width="8" height="8" fill="#1b1b1b"/><rect x="124" y="60" width="8" height="8" fill="#1b1b1b"/><rect x="100" y="68" width="8" height="8" fill="#1b1b1b"/><rect x="108" y="68" width="8" height="8" fill="#1b1b1b"/><rect x="124" y="68" width="8" height="8" fill="#1b1b1b"/><rect x="132" y="68" width="8" height="8" fill="#1b1b1b"/><rect x="100" y="76" width="8" height="8" fill="#1b1b1b"/><rect x="108" y="76" width="8" height="8" fill="#1b1b1b"/><rect x="124" y="76" width="8" height="8" fill="#1b1b1b"/><rect x="132" y="76" width="8" height="8" fill="#1b1b1b"/><text x="100" y="216" text-anchor="middle" class="byte">Byte 81 87</text><text x="210" y="66" class="meta">1.PAT , #70</text><text x="210" y="118" class="line">CHT: “  U+201C</text><text x="210" y="170" class="line">CHS: “  U+201C</text></svg>